<?xml version="1.0" encoding="utf-8"?>
<!-- Generator: Adobe Illustrator 16.0.0, SVG Export Plug-In . SVG Version: 6.00 Build 0)  -->
<!DOCTYPE svg PUBLIC "-//W3C//DTD SVG 1.1//EN" "http://www.w3.org/Graphics/SVG/1.1/DTD/svg11.dtd">
<svg version="1.1" id="Layer_1" xmlns="http://www.w3.org/2000/svg" xmlns:xlink="http://www.w3.org/1999/xlink" x="0px" y="0px"
	 width="150px" height="150px" viewBox="0 0 150 150" enable-background="new 0 0 150 150" xml:space="preserve">
<path fill="#D71920" stroke="#221F1F" stroke-width="6" stroke-miterlimit="10" d="M144.969,75.002
	c0,38.644-31.33,69.966-69.969,69.966c-38.643,0-69.969-31.322-69.969-69.966S36.357,5.032,75,5.032
	C113.639,5.032,144.969,36.358,144.969,75.002z"/>
<g>
	<path fill="#EDE6CE" d="M27.686,80.215h-5.379l-0.961,3.316h-3.984l5.508-17.062h4.254l5.52,17.062h-3.984L27.686,80.215z
		 M23.186,77.168h3.621l-1.781-6.105h-0.07L23.186,77.168z"/>
	<path fill="#EDE6CE" d="M47.01,77.543l0.023,0.07c-0.078,2-0.67,3.527-1.775,4.582s-2.709,1.582-4.811,1.582
		c-2.109,0-3.824-0.648-5.145-1.945s-1.98-2.98-1.98-5.051v-3.562c0-2.062,0.635-3.744,1.904-5.045s2.92-1.951,4.951-1.951
		c2.156,0,3.805,0.543,4.945,1.629s1.785,2.629,1.934,4.629l-0.023,0.07h-3.855c-0.055-1.109-0.303-1.934-0.744-2.473
		s-1.193-0.809-2.256-0.809c-0.898,0-1.605,0.361-2.121,1.084s-0.773,1.67-0.773,2.842v3.585c0,1.18,0.281,2.133,0.844,2.859
		s1.336,1.09,2.32,1.09c0.953,0,1.629-0.254,2.027-0.762s0.625-1.316,0.68-2.426H47.01z"/>
	<path fill="#EDE6CE" d="M63.381,83.531h-3.949v-6.867h-6.316v6.867h-3.973V66.469h3.973v7.148h6.316v-7.148h3.949V83.531z"/>
	<path fill="#EDE6CE" d="M77.631,69.516h-4.5v14.015h-3.973V69.516h-4.465v-3.047h12.938V69.516z"/>
	<path fill="#EDE6CE" d="M93.24,66.469v11.179c0,1.945-0.646,3.453-1.939,4.523s-2.986,1.605-5.08,1.605
		c-2.117,0-3.824-0.535-5.121-1.605s-1.945-2.578-1.945-4.523V66.469h3.973v11.179c0,1.047,0.27,1.822,0.809,2.326
		s1.301,0.756,2.285,0.756c0.977,0,1.729-0.25,2.256-0.75s0.791-1.277,0.791-2.332V66.469H93.24z"/>
	<path fill="#EDE6CE" d="M110.08,83.531h-3.949l-6.246-10.875l-0.07,0.023v10.851h-3.973V66.469h3.973l6.246,10.875l0.07-0.023
		V66.469h3.949V83.531z"/>
	<path fill="#EDE6CE" d="M126.24,81.176c-0.578,0.688-1.418,1.293-2.52,1.816s-2.484,0.785-4.148,0.785
		c-2.109,0-3.822-0.648-5.139-1.945s-1.975-2.98-1.975-5.051v-3.562c0-2.055,0.643-3.734,1.928-5.039s2.939-1.957,4.963-1.957
		c2.195,0,3.84,0.508,4.934,1.523s1.715,2.402,1.863,4.16l-0.023,0.07h-3.715c-0.133-0.898-0.424-1.574-0.873-2.027
		s-1.135-0.68-2.057-0.68s-1.664,0.365-2.227,1.096s-0.844,1.674-0.844,2.83v3.585c0,1.188,0.277,2.143,0.832,2.865
		s1.332,1.084,2.332,1.084c0.727,0,1.297-0.059,1.711-0.176s0.742-0.273,0.984-0.469v-2.695h-2.684v-2.625h6.656V81.176z"/>
	<path fill="#EDE6CE" d="M132.639,77.484h-3.973V66.469h3.973V77.484z M132.639,83.531h-3.973v-3.316h3.973V83.531z"/>
</g>
</svg>
