<?xml version="1.0" encoding="utf-8"?>
<!-- Generator: Adobe Illustrator 16.0.0, SVG Export Plug-In . SVG Version: 6.00 Build 0)  -->
<!DOCTYPE svg PUBLIC "-//W3C//DTD SVG 1.1//EN" "http://www.w3.org/Graphics/SVG/1.1/DTD/svg11.dtd">
<svg version="1.1" id="Layer_1" xmlns="http://www.w3.org/2000/svg" xmlns:xlink="http://www.w3.org/1999/xlink" x="0px" y="0px"
	 width="150px" height="150px" viewBox="0 0 150 150" enable-background="new 0 0 150 150" xml:space="preserve">
<path fill="#EBE4CD" stroke="#231F20" stroke-width="6" stroke-miterlimit="10" d="M144.969,75.002
	c0,38.644-31.33,69.966-69.969,69.966c-38.643,0-69.969-31.322-69.969-69.966S36.357,5.032,75,5.032
	C113.639,5.032,144.969,36.358,144.969,75.002z"/>
<g>
	<path fill="#221F1F" d="M115.09,79.479c4.141,9.247,0.553,14.627-0.965,15.317v3.45c0,0-26.494,17.386-39.125,16.974
		c-12.877,0.51-39.125-16.974-39.125-16.974v-3.45c-1.52-0.69-5.107-6.07-0.967-15.317c-5.244-17.526-9.671-12.933-11.039-21.665
		C29.39,45.809,58.091,34.907,75,34.77c16.907,0.138,45.61,11.04,51.131,23.044C124.76,66.546,120.333,61.953,115.09,79.479z"/>
	<path fill="#EBE4CD" d="M112.607,91.896H37.393c-1.173-1.174-1.379-8.553,0-9.936h75.215
		C113.987,83.344,113.781,90.723,112.607,91.896z"/>
	<g>
		<path fill="#EBE4CD" d="M87.392,95.023h-8.646l2.716,18.556c0,0,1.125-0.04,5.997-1.923c4.875-1.887,5.001-2.197,5.001-2.197
			L87.392,95.023z"/>
		<polygon fill="#EBE4CD" points="88.59,95.023 90.795,95.023 95.895,107.901 93.345,109.072 		"/>
	</g>
</g>
</svg>
