<?xml version="1.0" encoding="utf-8"?>
<!-- Generator: Adobe Illustrator 16.0.0, SVG Export Plug-In . SVG Version: 6.00 Build 0)  -->
<!DOCTYPE svg PUBLIC "-//W3C//DTD SVG 1.1//EN" "http://www.w3.org/Graphics/SVG/1.1/DTD/svg11.dtd">
<svg version="1.1" id="Layer_1" xmlns="http://www.w3.org/2000/svg" xmlns:xlink="http://www.w3.org/1999/xlink" x="0px" y="0px"
	 width="100px" height="100px" viewBox="0 0 100 100" enable-background="new 0 0 100 100" xml:space="preserve">
<circle fill="#D71920" stroke="#231F20" stroke-width="2" stroke-miterlimit="10" cx="49.719" cy="50" r="29.191"/>
<g>
	<path fill="#231F20" d="M67.807,51.965c1.838,4.106,0.245,6.497-0.43,6.804V60.3c0,0-11.709,8.336-17.376,7.539
		C44.333,68.636,32.623,60.3,32.623,60.3v-1.531c-0.674-0.307-2.268-2.697-0.429-6.804c-2.329-7.784-4.295-5.744-4.903-9.622
		c2.452-5.332,15.2-10.174,22.71-10.235c7.509,0.062,20.257,4.903,22.708,10.235C72.102,46.221,70.135,44.181,67.807,51.965z"/>
	<path fill="#EDE6CE" d="M66.703,57.48H33.297c-0.521-0.521-0.613-3.8,0-4.413h33.406C67.316,53.681,67.225,56.96,66.703,57.48z"/>
	<g>
		<polygon fill="#EDE6CE" points="55.504,58.87 51.663,58.87 52.848,67.001 57.752,65.448 		"/>
		<polygon fill="#EDE6CE" points="56.035,58.87 57.016,58.87 59.345,64.713 58.242,65.366 		"/>
	</g>
</g>
</svg>
